<?xml version="1.0" encoding="UTF-8"?>
<svg id="a" data-name="Ebene_1" xmlns="http://www.w3.org/2000/svg" width="497.404" height="115.872" viewBox="0 0 497.404 115.872">
  <path d="M0,95.149V26.409h18.069l2.527,7.834c1.39-4.423,3.791-9.098,13.268-9.098,10.993,0,13.647,5.307,13.647,16.932v53.071h-20.597v-47.132c0-3.791-1.011-4.423-3.033-4.423-2.148,0-3.285.632-3.285,4.423v47.132H0Z" fill="#d6455d"/>
  <path d="M68.618,96.412c-8.087,0-14.026-6.823-14.026-20.344v-2.148c0-15.669,6.95-20.344,16.174-21.355l9.603-1.011c0-5.939-2.906-7.455-8.845-7.455-4.675,0-7.961.632-11.12,2.527l-2.527-17.817c5.054-2.022,11.12-3.538,18.575-3.538,16.679,0,24.387,9.224,24.387,25.525v44.352h-19.207l-1.264-5.939c-2.906,4.549-6.571,7.202-11.751,7.202ZM71.651,75.31c0,4.549,1.011,6.444,5.56,6.444,1.643,0,3.285-.253,3.285-5.56v-10.993l-3.538.253c-2.654.126-5.307,2.274-5.307,6.95v2.906Z" fill="#f58e24"/>
  <path d="M109.508,95.149V26.409h17.817l2.527,7.834c1.643-2.78,3.285-9.098,13.268-9.098s11.751,4.17,12.383,8.845c1.516-4.675,5.56-8.845,13.773-8.845,10.488,0,14.026,6.697,14.026,16.932v53.071h-20.47v-47.132c0-3.791-1.011-4.423-3.033-4.423-1.895,0-3.285.632-3.285,4.423v47.132h-20.344v-47.132c0-3.791-1.011-4.423-3.033-4.423-1.895,0-3.285.632-3.285,4.423v47.132h-20.344Z" fill="#b7d060"/>
  <path d="M217.552,96.665c-15.921,0-26.536-11.372-26.536-33.612v-4.17c0-21.987,10.235-33.991,24.514-33.991,14.026,0,22.871,11.751,22.871,34.496v9.982c-8.972.379-18.322,0-27.294,0,1.011,6.571,4.296,8.972,9.982,8.972,4.928,0,7.834-.758,12.383-2.401l2.527,18.069c-5.054,1.769-10.867,2.654-18.448,2.654ZM209.591,57.367c3.791,0,7.961.126,11.751,0,0-10.741-2.274-14.026-5.939-14.026-3.033,0-5.813,2.148-5.813,14.026Z" fill="#84bdbe"/>
  <path d="M265.112,36.518c2.022-6.571,7.708-11.372,14.658-11.372,8.466,0,15.795,3.791,15.795,32.095v7.076c0,28.305-7.329,32.095-15.795,32.095-6.444,0-9.73-3.791-12.889-9.224l-2.527,7.961h-17.943V0h19.207v30.832c0,1.769-.253,3.917-.758,5.56l.253.126ZM270.925,78.09c2.906,0,5.307-1.39,5.307-13.141v-8.34c0-10.109-2.401-13.141-5.307-13.141s-4.17.505-4.17,13.141v8.34c0,13.015,1.264,13.141,4.17,13.141ZM329.528,96.665c-15.921,0-26.535-11.372-26.535-33.612v-4.17c0-21.987,10.235-33.991,24.514-33.991,14.026,0,22.871,11.751,22.871,34.496v9.982c-8.972.379-18.322,0-27.294,0,1.011,6.571,4.296,8.972,9.982,8.972,4.928,0,7.834-.758,12.383-2.401l2.527,18.069c-5.054,1.769-10.867,2.654-18.448,2.654ZM321.567,57.367c3.791,0,7.961.126,11.751,0,0-10.741-2.274-14.026-5.939-14.026-3.033,0-5.813,2.148-5.813,14.026ZM378.984,64.064v31.084h-20.597V26.409h17.943l2.527,10.235c2.274-7.834,6.697-11.246,11.372-11.246,2.148,0,4.296.632,6.318,2.022v19.586c-1.769-.632-3.412-1.011-4.928-1.011-7.834,0-12.636,7.834-12.636,18.069ZM424.484,64.064v31.084h-20.597V26.409h17.943l2.527,10.235c2.274-7.834,6.697-11.246,11.372-11.246,2.148,0,4.296.632,6.318,2.022v19.586c-1.769-.632-3.412-1.011-4.928-1.011-7.834,0-12.636,7.834-12.636,18.069ZM471.374,60.653l6.318-34.243h19.712l-17.817,70.003c-3.538,13.773-6.571,19.459-19.08,19.459h-10.109v-15.163c.885,0,3.033.126,3.917.126,2.906,0,5.939-2.78,5.939-6.192l-14.026-68.234h20.47l3.664,34.117c.253,1.769.253,4.296.126,6.065h.253c.126-1.769.253-4.17.632-5.939Z" fill="#6499a5"/>
</svg>