<svg xmlns="http://www.w3.org/2000/svg" width="251" height="218" viewBox="0 0 251 218">
    <g fill="none" fill-rule="evenodd">
        <g>
            <g transform="translate(44 77) matrix(-1 0 0 1 206.498 -76.764)">
                <ellipse cx="113.106" cy="54.67" stroke="#FFF" stroke-width="1.222" opacity=".644" rx="54.108" ry="54.059"/>
                <g fill-rule="nonzero" stroke="#FFF" stroke-width="1.222" opacity=".644">
                    <path d="M79.58 7.244H29.931c-4.438 0-8.543 2.357-10.783 6.192L-5.536 55.689c-2.278 3.899-2.278 8.723 0 12.622l24.685 42.253c2.24 3.835 6.345 6.192 10.783 6.192h49.647c4.438 0 8.543-2.357 10.783-6.192l24.685-42.253c2.278-3.899 2.278-8.723 0-12.622L90.362 13.436c-2.24-3.835-6.345-6.192-10.783-6.192z" transform="translate(0 93.764) rotate(-90 54.756 62)"/>
                    <path d="M196.048 7.244h-49.647c-4.438 0-8.543 2.357-10.783 6.192l-24.685 42.253c-2.278 3.899-2.278 8.723 0 12.622l24.685 42.253c2.24 3.835 6.345 6.192 10.783 6.192h49.647c4.438 0 8.543-2.357 10.783-6.192l24.686-42.253c2.277-3.899 2.277-8.723 0-12.622L206.83 13.436c-2.24-3.835-6.345-6.192-10.783-6.192z" transform="translate(0 93.764) rotate(-90 171.225 62)"/>
                </g>
                <g fill-rule="nonzero">
                    <g>
                        <g opacity=".467" transform="translate(81.968 40.079) translate(0 114.532) translate(0 1.527)">
                            <ellipse cx="12.992" cy="12.98" fill="#B8CC7A" rx="12.075" ry="12.064"/>
                            <path fill="#9FB06A" d="M12.992.916c6.669 0 12.075 5.402 12.075 12.064 0 6.663-5.406 12.064-12.075 12.064S.917 19.644.917 12.98C.917 6.318 6.323.916 12.992.916zm0 .917c-6.162 0-11.158 4.99-11.158 11.147S6.83 24.128 12.992 24.128c6.162 0 11.158-4.991 11.158-11.148 0-6.156-4.996-11.147-11.158-11.147z"/>
                            <g transform="translate(4.562 4.558)">
                                <ellipse cx="8.43" cy="8.422" fill="#80BDBB" rx="8.43" ry="8.422"/>
                                <path fill="#6FA3A2" d="M8.43 0c4.655 0 8.43 3.77 8.43 8.422 0 4.651-3.775 8.422-8.43 8.422-4.656 0-8.43-3.77-8.43-8.422C0 3.771 3.774 0 8.43 0zm0 .922C4.283.922.922 4.28.922 8.422c0 4.142 3.361 7.5 7.508 7.5 4.146 0 7.507-3.358 7.507-7.5 0-4.142-3.361-7.5-7.507-7.5z"/>
                            </g>
                        </g>
                        <g>
                            <g transform="translate(81.968 40.079) translate(0 114.532) translate(128.697 1.527) translate(.917 .916)">
                                <ellipse cx="12.075" cy="12.064" fill="#F48D25" rx="12.075" ry="12.064"/>
                                <path fill="#D27A22" d="M12.075 0C18.744 0 24.15 5.401 24.15 12.064s-5.406 12.064-12.075 12.064S0 18.727 0 12.064 5.406 0 12.075 0zm0 .916C5.913.916.917 5.907.917 12.064s4.996 11.148 11.158 11.148c6.162 0 11.158-4.991 11.158-11.148S18.237.916 12.075.916z"/>
                            </g>
                            <g>
                                <path fill="#80BDBB" d="M11.33.964H4.76c-.876 0-1.687.466-2.13 1.223L-.626 7.764c-.45.77-.45 1.722 0 2.492l3.258 5.577c.442.757 1.253 1.222 2.129 1.222h6.57c.877 0 1.687-.465 2.13-1.222l3.258-5.577c.45-.77.45-1.722 0-2.492L13.46 2.187C13.017 1.43 12.207.964 11.33.964z" transform="translate(81.968 40.079) translate(0 114.532) translate(128.697 1.527) translate(4.946 3.97) rotate(-90 8.045 9.01)"/>
                                <path fill="#D27A22" d="M11.334.972c.848 0 1.634.434 2.085 1.146l.046.075 3.26 5.572c.435.742.45 1.655.046 2.41l-.045.08-3.261 5.572c-.428.73-1.2 1.19-2.044 1.22l-.087.001H4.757c-.848 0-1.634-.434-2.085-1.147l-.046-.074-3.261-5.572c-.435-.743-.45-1.656-.045-2.41l.045-.08 3.261-5.572c.428-.731 1.2-1.19 2.043-1.22l.088-.001h6.577zm0 .925H4.757c-.524 0-1.011.265-1.294.702l-.038.06L.164 8.233c-.268.459-.28 1.021-.037 1.49l.037.066 3.261 5.572c.265.452.74.738 1.26.762l.072.001h6.577c.524 0 1.01-.266 1.294-.703l.038-.06 3.26-5.572c.27-.459.281-1.022.037-1.49l-.036-.066-3.261-5.572c-.265-.452-.74-.738-1.261-.762l-.071-.001z" transform="translate(81.968 40.079) translate(0 114.532) translate(128.697 1.527) translate(4.946 3.97) rotate(-90 8.045 9.01)"/>
                            </g>
                        </g>
                        <g>
                            <g>
                                <g transform="translate(81.968 40.079) translate(0 114.532) translate(102.713 1.527) translate(.917 .916)">
                                    <ellipse cx="12.075" cy="12.064" fill="#D6455D" rx="12.075" ry="12.064"/>
                                    <path fill="#B93D52" d="M12.075 0C18.744 0 24.15 5.401 24.15 12.064s-5.406 12.064-12.075 12.064S0 18.727 0 12.064 5.406 0 12.075 0zm0 .916C5.913.916.917 5.907.917 12.064s4.996 11.148 11.158 11.148c6.162 0 11.158-4.991 11.158-11.148S18.237.916 12.075.916z"/>
                                </g>
                                <g>
                                    <path fill="#B93D52" d="M11.33.964H4.76c-.876 0-1.687.466-2.13 1.223L-.626 7.764c-.45.77-.45 1.722 0 2.492l3.258 5.577c.442.757 1.253 1.222 2.129 1.222h6.57c.877 0 1.687-.465 2.13-1.222l3.258-5.577c.45-.77.45-1.722 0-2.492L13.46 2.187C13.017 1.43 12.207.964 11.33.964z" transform="translate(81.968 40.079) translate(0 114.532) translate(102.713 1.527) translate(.917 .916) translate(4.029 3.054) rotate(-90 8.045 9.01)"/>
                                    <path fill="#A03648" d="M11.334.972c.848 0 1.634.434 2.085 1.146l.046.075 3.26 5.572c.435.742.45 1.655.046 2.41l-.045.08-3.261 5.572c-.428.73-1.2 1.19-2.044 1.22l-.087.001H4.757c-.848 0-1.634-.434-2.085-1.147l-.046-.074-3.261-5.572c-.435-.743-.45-1.656-.045-2.41l.045-.08 3.261-5.572c.428-.731 1.2-1.19 2.043-1.22l.088-.001h6.577zm0 .925H4.757c-.524 0-1.011.265-1.294.702l-.038.06L.164 8.233c-.268.459-.28 1.021-.037 1.49l.037.066 3.261 5.572c.265.452.74.738 1.26.762l.072.001h6.577c.524 0 1.01-.266 1.294-.703l.038-.06 3.26-5.572c.27-.459.281-1.022.037-1.49l-.036-.066-3.261-5.572c-.265-.452-.74-.738-1.261-.762l-.071-.001z" transform="translate(81.968 40.079) translate(0 114.532) translate(102.713 1.527) translate(.917 .916) translate(4.029 3.054) rotate(-90 8.045 9.01)"/>
                                </g>
                            </g>
                        </g>
                        <g transform="translate(81.968 40.079) translate(0 114.532) translate(51.356 1.527)">
                            <ellipse cx="12.992" cy="12.98" fill="#F48D25" rx="12.075" ry="12.064"/>
                            <path fill="#D27A22" d="M12.992.916c6.669 0 12.075 5.402 12.075 12.064 0 6.663-5.406 12.064-12.075 12.064S.917 19.644.917 12.98C.917 6.318 6.323.916 12.992.916zm0 .917c-6.162 0-11.158 4.99-11.158 11.147S6.83 24.128 12.992 24.128c6.162 0 11.158-4.991 11.158-11.148 0-6.156-4.996-11.147-11.158-11.147z"/>
                            <g transform="translate(4.562 4.558)">
                                <ellipse cx="8.407" cy="8.399" fill="#B8CC7A" rx="7.795" ry="7.788"/>
                                <path fill="#D27A22" d="M8.43 0c4.655 0 8.43 3.77 8.43 8.422 0 4.651-3.775 8.422-8.43 8.422-4.656 0-8.43-3.77-8.43-8.422C0 3.771 3.774 0 8.43 0zm0 .922C4.283.922.922 4.28.922 8.422c0 4.142 3.361 7.5 7.508 7.5 4.146 0 7.507-3.358 7.507-7.5 0-4.142-3.361-7.5-7.507-7.5z"/>
                            </g>
                        </g>
                        <g>
                            <g>
                                <path fill="#F48D25" d="M17.306 1.575H6.51c-.965 0-1.857.513-2.345 1.347l-5.368 9.189c-.495.848-.495 1.897 0 2.745l5.368 9.189c.488.834 1.38 1.346 2.345 1.346h10.797c.965 0 1.858-.512 2.345-1.346l5.369-9.19c.495-.847.495-1.896 0-2.744L19.65 2.92c-.487-.833-1.38-1.346-2.345-1.346z" transform="translate(81.968 40.079) translate(0 114.532) translate(24.15) translate(2.614 1.024) rotate(-90 11.908 13.483)"/>
                                <path fill="#D27A22" d="M17.293 1.586c.945 0 1.82.484 2.324 1.278l.05.083 5.355 9.149c.484.827.501 1.845.05 2.685l-.05.09-5.354 9.148c-.477.815-1.338 1.327-2.278 1.36l-.097.002H6.523c-.945 0-1.821-.485-2.324-1.278l-.05-.084-5.355-9.148c-.485-.828-.501-1.845-.05-2.686l.05-.089 5.354-9.149c.477-.815 1.338-1.326 2.277-1.36h10.868zm0 1.03H6.523c-.584 0-1.127.297-1.443.784l-.041.067-5.355 9.15c-.3.51-.313 1.138-.04 1.66l.04.073L5.04 23.5c.295.503.824.821 1.404.848l.08.002h10.77c.584 0 1.126-.296 1.442-.783l.042-.068 5.355-9.149c.299-.51.312-1.138.04-1.66l-.04-.074-5.355-9.149c-.295-.503-.825-.822-1.405-.848l-.08-.002z" transform="translate(81.968 40.079) translate(0 114.532) translate(24.15) translate(2.614 1.024) rotate(-90 11.908 13.483)"/>
                            </g>
                            <g>
                                <path fill="#B8CC7A" d="M10.971 1.7H5.087c-.89 0-1.714.474-2.164 1.246l-2.914 5c-.457.785-.457 1.756 0 2.54l2.914 5.001c.45.772 1.273 1.246 2.164 1.246h5.884c.89 0 1.714-.474 2.164-1.246l2.914-5.001c.457-.784.457-1.755 0-2.54l-2.914-5c-.45-.772-1.273-1.246-2.164-1.246z" transform="translate(81.968 40.079) translate(0 114.532) translate(24.15) translate(6.413 5.467) rotate(-90 8.029 9.216)"/>
                                <path fill="#D27A22" d="M11.276.939c.943 0 1.818.483 2.32 1.275l.05.083 3.137 5.36c.483.825.5 1.84.05 2.68l-.05.088-3.137 5.36c-.476.813-1.335 1.323-2.272 1.356l-.098.002H4.942c-.943 0-1.817-.483-2.319-1.276l-.05-.083-3.137-5.359c-.483-.825-.5-1.84-.05-2.68l.05-.089 3.136-5.359C3.048 1.484 3.907.974 4.845.94L4.942.94h6.334zm0 1.028H4.942c-.583 0-1.124.296-1.44.782l-.04.067-3.137 5.36c-.299.51-.313 1.136-.041 1.656l.04.074 3.137 5.36c.295.502.823.82 1.402.846l.08.002h6.333c.583 0 1.125-.296 1.44-.781l.041-.068 3.137-5.359c.299-.51.312-1.136.04-1.657l-.04-.074-3.137-5.359c-.294-.503-.823-.82-1.402-.847l-.079-.002z" transform="translate(81.968 40.079) translate(0 114.532) translate(24.15) translate(6.413 5.467) rotate(-90 8.11 9.04)"/>
                            </g>
                        </g>
                    </g>
                    <g>
                        <g opacity=".639" transform="translate(81.968 40.079) translate(11.31 91.626) translate(27.207 1.527)">
                            <ellipse cx="12.992" cy="12.98" fill="#B8CC7A" rx="12.075" ry="12.064"/>
                            <path fill="#9FB06A" d="M12.992.916c6.669 0 12.075 5.402 12.075 12.064 0 6.663-5.406 12.064-12.075 12.064S.917 19.644.917 12.98C.917 6.318 6.323.916 12.992.916zm0 .917c-6.162 0-11.158 4.99-11.158 11.147S6.83 24.128 12.992 24.128c6.162 0 11.158-4.991 11.158-11.148 0-6.156-4.996-11.147-11.158-11.147z"/>
                            <g transform="translate(4.562 4.558)">
                                <ellipse cx="8.43" cy="8.422" fill="#80BDBB" rx="8.43" ry="8.422"/>
                                <path fill="#6FA3A2" d="M8.43 0c4.655 0 8.43 3.77 8.43 8.422 0 4.651-3.775 8.422-8.43 8.422-4.656 0-8.43-3.77-8.43-8.422C0 3.771 3.774 0 8.43 0zm0 .922C4.283.922.922 4.28.922 8.422c0 4.142 3.361 7.5 7.508 7.5 4.146 0 7.507-3.358 7.507-7.5 0-4.142-3.361-7.5-7.507-7.5z"/>
                            </g>
                        </g>
                        <g opacity=".742">
                            <g>
                                <path fill="#80BDBB" d="M17.307 1.576H6.51c-.965 0-1.858.512-2.345 1.346l-5.369 9.19c-.495.847-.495 1.897 0 2.744l5.369 9.19c.487.834 1.38 1.346 2.345 1.346h10.797c.965 0 1.858-.512 2.345-1.346l5.369-9.19c.495-.847.495-1.897 0-2.745l-5.369-9.189c-.487-.834-1.38-1.346-2.345-1.346z" transform="translate(81.968 40.079) translate(11.31 91.626) translate(2.614 1.024) rotate(-90 11.908 13.484)"/>
                                <path fill="#6FA3A2" d="M17.294 1.586c.945 0 1.82.484 2.324 1.278l.05.083 5.355 9.15c.485.827.501 1.844.05 2.685l-.05.09-5.355 9.149c-.476.815-1.337 1.326-2.277 1.359l-.097.002H6.524c-.946 0-1.822-.484-2.325-1.278l-.05-.083-5.355-9.15c-.485-.827-.501-1.844-.05-2.685l.05-.09 5.354-9.149c.477-.815 1.338-1.326 2.278-1.36H17.293zm0 1.03H6.524c-.585 0-1.127.297-1.443.784l-.042.068-5.355 9.149c-.3.511-.313 1.138-.04 1.66l.04.074 5.355 9.15c.295.503.825.822 1.405.848l.08.002h10.77c.584 0 1.126-.296 1.442-.783l.042-.068 5.355-9.149c.299-.511.313-1.138.04-1.66l-.04-.074-5.355-9.15c-.295-.503-.825-.822-1.405-.848l-.08-.002z" transform="translate(81.968 40.079) translate(11.31 91.626) translate(2.614 1.024) rotate(-90 11.908 13.484)"/>
                            </g>
                            <g transform="translate(81.968 40.079) translate(11.31 91.626) translate(6.15 6.144)">
                                <ellipse cx="8.371" cy="8.363" fill="#D6455D" rx="8.371" ry="8.363"/>
                                <path fill="#B93D52" d="M8.37 0c4.624 0 8.371 3.744 8.371 8.363s-3.747 8.363-8.37 8.363C3.748 16.726 0 12.982 0 8.363S3.748 0 8.37 0zm0 1C4.287 1 .984 4.3.984 8.363c0 4.063 3.303 7.363 7.388 7.363 4.084 0 7.388-3.3 7.388-7.363C15.759 4.301 12.455 1 8.37 1z"/>
                            </g>
                        </g>
                    </g>
                    <g>
                        <g>
                            <g>
                                <g transform="translate(81.968 40.079) translate(51.968 22.906) translate(51.356 1.527) translate(.917 .916)">
                                    <ellipse cx="12.075" cy="12.064" fill="#D6455D" rx="12.075" ry="12.064"/>
                                    <path fill="#B93D52" d="M12.075 0C18.744 0 24.15 5.401 24.15 12.064s-5.406 12.064-12.075 12.064S0 18.727 0 12.064 5.406 0 12.075 0zm0 .916C5.913.916.917 5.907.917 12.064s4.996 11.148 11.158 11.148c6.162 0 11.158-4.991 11.158-11.148S18.237.916 12.075.916z"/>
                                </g>
                                <g>
                                    <path fill="#F48D25" d="M11.33.964H4.76c-.876 0-1.687.466-2.13 1.223L-.626 7.764c-.45.77-.45 1.722 0 2.492l3.258 5.577c.442.757 1.253 1.222 2.129 1.222h6.57c.877 0 1.687-.465 2.13-1.222l3.258-5.577c.45-.77.45-1.722 0-2.492L13.46 2.187C13.017 1.43 12.207.964 11.33.964z" transform="translate(81.968 40.079) translate(51.968 22.906) translate(51.356 1.527) translate(.917 .916) translate(4.029 3.054) rotate(-90 8.045 9.01)"/>
                                    <path fill="#B93D52" d="M11.334.972c.848 0 1.634.434 2.085 1.146l.046.075 3.26 5.572c.435.742.45 1.655.046 2.41l-.045.08-3.261 5.572c-.428.73-1.2 1.19-2.044 1.22l-.087.001H4.757c-.848 0-1.634-.434-2.085-1.147l-.046-.074-3.261-5.572c-.435-.743-.45-1.656-.045-2.41l.045-.08 3.261-5.572c.428-.731 1.2-1.19 2.043-1.22l.088-.001h6.577zm0 .925H4.757c-.524 0-1.011.265-1.294.702l-.038.06L.164 8.233c-.268.459-.28 1.021-.037 1.49l.037.066 3.261 5.572c.265.452.74.738 1.26.762l.072.001h6.577c.524 0 1.01-.266 1.294-.703l.038-.06 3.26-5.572c.27-.459.281-1.022.037-1.49l-.036-.066-3.261-5.572c-.265-.452-.74-.738-1.261-.762l-.071-.001z" transform="translate(81.968 40.079) translate(51.968 22.906) translate(51.356 1.527) translate(.917 .916) translate(4.029 3.054) rotate(-90 8.045 9.01)"/>
                                </g>
                            </g>
                        </g>
                        <g transform="translate(81.968 40.079) translate(51.968 22.906) translate(0 1.527)">
                            <ellipse cx="12.992" cy="12.98" fill="#80BDBB" rx="12.075" ry="12.064"/>
                            <path fill="#6FA3A2" d="M12.992.916c6.669 0 12.075 5.402 12.075 12.064 0 6.663-5.406 12.064-12.075 12.064S.917 19.644.917 12.98C.917 6.318 6.323.916 12.992.916zm0 .917c-6.162 0-11.158 4.99-11.158 11.147S6.83 24.128 12.992 24.128c6.162 0 11.158-4.991 11.158-11.148 0-6.156-4.996-11.147-11.158-11.147z"/>
                            <g transform="translate(4.562 4.558)">
                                <ellipse cx="8.43" cy="8.422" fill="#F48D25" rx="8.43" ry="8.422"/>
                                <path fill="#6FA3A2" d="M8.43 0c4.655 0 8.43 3.77 8.43 8.422 0 4.651-3.775 8.422-8.43 8.422-4.656 0-8.43-3.77-8.43-8.422C0 3.771 3.774 0 8.43 0zm0 .922C4.283.922.922 4.28.922 8.422c0 4.142 3.361 7.5 7.508 7.5 4.146 0 7.507-3.358 7.507-7.5 0-4.142-3.361-7.5-7.507-7.5z"/>
                            </g>
                        </g>
                        <g>
                            <g>
                                <path fill="#F48D25" d="M17.307 1.576H6.51c-.965 0-1.858.512-2.345 1.346l-5.369 9.19c-.495.847-.495 1.897 0 2.744l5.369 9.19c.487.834 1.38 1.346 2.345 1.346h10.797c.965 0 1.858-.512 2.345-1.346l5.369-9.19c.495-.847.495-1.897 0-2.745l-5.369-9.189c-.487-.834-1.38-1.346-2.345-1.346z" transform="translate(81.968 40.079) translate(51.968 22.906) translate(24.15) translate(2.614 1.024) rotate(-90 11.908 13.484)"/>
                                <path fill="#D27A22" d="M17.294 1.586c.945 0 1.82.484 2.324 1.278l.05.083 5.355 9.15c.485.827.501 1.844.05 2.685l-.05.09-5.355 9.149c-.476.815-1.337 1.326-2.277 1.359l-.097.002H6.524c-.946 0-1.822-.484-2.325-1.278l-.05-.083-5.355-9.15c-.485-.827-.501-1.844-.05-2.685l.05-.09 5.354-9.149c.477-.815 1.338-1.326 2.278-1.36H17.293zm0 1.03H6.524c-.585 0-1.127.297-1.443.784l-.042.068-5.355 9.149c-.3.511-.313 1.138-.04 1.66l.04.074 5.355 9.15c.295.503.825.822 1.405.848l.08.002h10.77c.584 0 1.126-.296 1.442-.783l.042-.068 5.355-9.149c.299-.511.313-1.138.04-1.66l-.04-.074-5.355-9.15c-.295-.503-.825-.822-1.405-.848l-.08-.002z" transform="translate(81.968 40.079) translate(51.968 22.906) translate(24.15) translate(2.614 1.024) rotate(-90 11.908 13.484)"/>
                            </g>
                            <g transform="translate(81.968 40.079) translate(51.968 22.906) translate(24.15) translate(6.15 6.144)">
                                <ellipse cx="8.371" cy="8.363" fill="#D6455D" rx="8.371" ry="8.363"/>
                                <path fill="#B93D52" d="M8.37 0c4.624 0 8.371 3.744 8.371 8.363s-3.747 8.363-8.37 8.363C3.748 16.726 0 12.982 0 8.363S3.748 0 8.37 0zm0 1C4.287 1 .984 4.3.984 8.363c0 4.063 3.303 7.363 7.388 7.363 4.084 0 7.388-3.3 7.388-7.363C15.759 4.301 12.455 1 8.37 1z"/>
                            </g>
                        </g>
                    </g>
                    <g>
                        <g opacity=".232">
                            <g>
                                <g transform="translate(81.968 40.079) translate(0 68.72) translate(0 1.527) translate(.917 .916)">
                                    <ellipse cx="12.075" cy="12.064" fill="#D6455D" rx="12.075" ry="12.064"/>
                                    <path fill="#B93D52" d="M12.075 0C18.744 0 24.15 5.401 24.15 12.064s-5.406 12.064-12.075 12.064S0 18.727 0 12.064 5.406 0 12.075 0zm0 .916C5.913.916.917 5.907.917 12.064s4.996 11.148 11.158 11.148c6.162 0 11.158-4.991 11.158-11.148S18.237.916 12.075.916z"/>
                                </g>
                                <g>
                                    <path fill="#B8CC7A" d="M11.33.964H4.76c-.876 0-1.687.466-2.13 1.223L-.626 7.764c-.45.77-.45 1.722 0 2.492l3.258 5.577c.442.757 1.253 1.222 2.129 1.222h6.57c.877 0 1.687-.465 2.13-1.222l3.258-5.577c.45-.77.45-1.722 0-2.492L13.46 2.187C13.017 1.43 12.207.964 11.33.964z" transform="translate(81.968 40.079) translate(0 68.72) translate(0 1.527) translate(.917 .916) translate(4.029 3.054) rotate(-90 8.045 9.01)"/>
                                    <path fill="#B93D52" d="M11.334.972c.848 0 1.634.434 2.085 1.146l.046.075 3.26 5.572c.435.742.45 1.655.046 2.41l-.045.08-3.261 5.572c-.428.73-1.2 1.19-2.044 1.22l-.087.001H4.757c-.848 0-1.634-.434-2.085-1.147l-.046-.074-3.261-5.572c-.435-.743-.45-1.656-.045-2.41l.045-.08 3.261-5.572c.428-.731 1.2-1.19 2.043-1.22l.088-.001h6.577zm0 .925H4.757c-.524 0-1.011.265-1.294.702l-.038.06L.164 8.233c-.268.459-.28 1.021-.037 1.49l.037.066 3.261 5.572c.265.452.74.738 1.26.762l.072.001h6.577c.524 0 1.01-.266 1.294-.703l.038-.06 3.26-5.572c.27-.459.281-1.022.037-1.49l-.036-.066-3.261-5.572c-.265-.452-.74-.738-1.261-.762l-.071-.001z" transform="translate(81.968 40.079) translate(0 68.72) translate(0 1.527) translate(.917 .916) translate(4.029 3.054) rotate(-90 8.045 9.01)"/>
                                </g>
                            </g>
                        </g>
                        <g transform="translate(81.968 40.079) translate(0 68.72) translate(128.697 1.527)">
                            <ellipse cx="12.992" cy="12.98" fill="#80BDBB" rx="12.075" ry="12.064"/>
                            <path fill="#6FA3A2" d="M12.992.916c6.669 0 12.075 5.402 12.075 12.064 0 6.663-5.406 12.064-12.075 12.064S.917 19.644.917 12.98C.917 6.318 6.323.916 12.992.916zm0 .917c-6.162 0-11.158 4.99-11.158 11.147S6.83 24.128 12.992 24.128c6.162 0 11.158-4.991 11.158-11.148 0-6.156-4.996-11.147-11.158-11.147z"/>
                            <g transform="translate(4.562 4.558)">
                                <ellipse cx="8.43" cy="8.422" fill="#B8CC7A" rx="8.43" ry="8.422"/>
                                <path fill="#6FA3A2" d="M8.43 0c4.655 0 8.43 3.77 8.43 8.422 0 4.651-3.775 8.422-8.43 8.422-4.656 0-8.43-3.77-8.43-8.422C0 3.771 3.774 0 8.43 0zm0 .922C4.283.922.922 4.28.922 8.422c0 4.142 3.361 7.5 7.508 7.5 4.146 0 7.507-3.358 7.507-7.5 0-4.142-3.361-7.5-7.507-7.5z"/>
                            </g>
                        </g>
                        <g transform="translate(81.968 40.079) translate(0 68.72) translate(102.713 1.527)">
                            <ellipse cx="12.992" cy="12.98" fill="#F48D25" rx="12.075" ry="12.064"/>
                            <path fill="#D27A22" d="M12.992.916c6.669 0 12.075 5.402 12.075 12.064 0 6.663-5.406 12.064-12.075 12.064S.917 19.644.917 12.98C.917 6.318 6.323.916 12.992.916zm0 .917c-6.162 0-11.158 4.99-11.158 11.147S6.83 24.128 12.992 24.128c6.162 0 11.158-4.991 11.158-11.148 0-6.156-4.996-11.147-11.158-11.147z"/>
                            <g transform="translate(4.562 4.558)">
                                <ellipse cx="8.43" cy="8.422" fill="#80BDBB" rx="8.43" ry="8.422"/>
                                <path fill="#D27A22" d="M8.43 0c4.655 0 8.43 3.77 8.43 8.422 0 4.651-3.775 8.422-8.43 8.422-4.656 0-8.43-3.77-8.43-8.422C0 3.771 3.774 0 8.43 0zm0 .922C4.283.922.922 4.28.922 8.422c0 4.142 3.361 7.5 7.508 7.5 4.146 0 7.507-3.358 7.507-7.5 0-4.142-3.361-7.5-7.507-7.5z"/>
                            </g>
                        </g>
                        <g>
                            <g>
                                <path fill="#80BDBB" d="M17.306 1.575H6.51c-.965 0-1.857.513-2.345 1.347l-5.368 9.189c-.495.848-.495 1.897 0 2.745l5.368 9.189c.488.834 1.38 1.346 2.345 1.346h10.797c.965 0 1.858-.512 2.345-1.346l5.369-9.19c.495-.847.495-1.896 0-2.744L19.65 2.92c-.487-.833-1.38-1.346-2.345-1.346z" transform="translate(81.968 40.079) translate(0 68.72) translate(75.506) translate(2.614 1.024) rotate(-90 11.908 13.483)"/>
                                <path fill="#6FA3A2" d="M17.293 1.586c.945 0 1.82.484 2.324 1.278l.05.083 5.355 9.149c.484.827.501 1.845.05 2.685l-.05.09-5.354 9.148c-.477.815-1.338 1.327-2.278 1.36l-.097.002H6.523c-.945 0-1.821-.485-2.324-1.278l-.05-.084-5.355-9.148c-.485-.828-.501-1.845-.05-2.686l.05-.089 5.354-9.149c.477-.815 1.338-1.326 2.277-1.36h10.868zm0 1.03H6.523c-.584 0-1.127.297-1.443.784l-.041.067-5.355 9.15c-.3.51-.313 1.138-.04 1.66l.04.073L5.04 23.5c.295.503.824.821 1.404.848l.08.002h10.77c.584 0 1.126-.296 1.442-.783l.042-.068 5.355-9.149c.299-.51.312-1.138.04-1.66l-.04-.074-5.355-9.149c-.295-.503-.825-.822-1.405-.848l-.08-.002z" transform="translate(81.968 40.079) translate(0 68.72) translate(75.506) translate(2.614 1.024) rotate(-90 11.908 13.483)"/>
                            </g>
                            <g>
                                <path fill="#F48D25" d="M11.292.936H4.927c-.963 0-1.854.512-2.34 1.344L-.566 7.676c-.494.846-.494 1.893 0 2.74l3.153 5.395c.486.833 1.377 1.344 2.34 1.344h6.365c.963 0 1.854-.511 2.34-1.344l3.152-5.396c.495-.846.495-1.893 0-2.739L13.632 2.28c-.486-.832-1.377-1.344-2.34-1.344z" transform="translate(81.968 40.079) translate(0 68.72) translate(75.506) translate(6.413 5.462) rotate(-90 8.11 9.046)"/>
                                <path fill="#D27A22" d="M11.276.944c.943 0 1.818.483 2.32 1.275l.05.083 3.137 5.36c.483.825.5 1.84.05 2.68l-.05.088-3.137 5.36c-.476.813-1.335 1.323-2.272 1.356l-.098.002H4.942c-.943 0-1.817-.483-2.319-1.276l-.05-.083-3.137-5.359c-.483-.825-.5-1.84-.05-2.68l.05-.089 3.136-5.359C3.048 1.49 3.907.98 4.845.945l.097-.001h6.334zm0 1.028H4.942c-.583 0-1.124.296-1.44.782l-.04.067-3.137 5.36C.026 8.69.012 9.316.284 9.836l.04.074 3.137 5.36c.295.502.823.82 1.402.846l.08.002h6.333c.583 0 1.125-.295 1.44-.781l.041-.068 3.137-5.359c.299-.51.312-1.136.04-1.657l-.04-.074-3.137-5.359c-.294-.503-.823-.82-1.402-.847l-.079-.002z" transform="translate(81.968 40.079) translate(0 68.72) translate(75.506) translate(6.413 5.462) rotate(-90 8.11 9.046)"/>
                            </g>
                        </g>
                        <g>
                            <g transform="translate(81.968 40.079) translate(0 68.72) translate(51.356 1.527) translate(.917 .916)">
                                <ellipse cx="12.075" cy="12.064" fill="#D6455D" rx="12.075" ry="12.064"/>
                                <path fill="#B93D52" d="M12.075 0C18.744 0 24.15 5.401 24.15 12.064s-5.406 12.064-12.075 12.064S0 18.727 0 12.064 5.406 0 12.075 0zm0 .916C5.913.916.917 5.907.917 12.064s4.996 11.148 11.158 11.148c6.162 0 11.158-4.991 11.158-11.148S18.237.916 12.075.916z"/>
                                <g transform="translate(3.645 3.642)">
                                    <ellipse cx="8.43" cy="8.422" fill="#F48D25" rx="8.43" ry="8.422"/>
                                    <path fill="#B93D52" d="M8.43 0c4.655 0 8.43 3.77 8.43 8.422 0 4.651-3.775 8.422-8.43 8.422-4.656 0-8.43-3.77-8.43-8.422C0 3.771 3.774 0 8.43 0zm0 .922C4.283.922.922 4.28.922 8.422c0 4.142 3.361 7.5 7.508 7.5 4.146 0 7.507-3.358 7.507-7.5 0-4.142-3.361-7.5-7.507-7.5z"/>
                                </g>
                            </g>
                        </g>
                        <g>
                            <g>
                                <path fill="#B8CC7A" d="M17.306 1.575H6.51c-.965 0-1.857.513-2.345 1.347l-5.368 9.189c-.495.848-.495 1.897 0 2.745l5.368 9.189c.488.834 1.38 1.346 2.345 1.346h10.797c.965 0 1.858-.512 2.345-1.346l5.369-9.19c.495-.847.495-1.896 0-2.744L19.65 2.92c-.487-.833-1.38-1.346-2.345-1.346z" transform="translate(81.968 40.079) translate(0 68.72) translate(24.15) translate(2.614 1.024) rotate(-90 11.908 13.483)"/>
                                <path fill="#9FB06A" d="M17.293 1.586c.945 0 1.82.484 2.324 1.278l.05.083 5.355 9.149c.484.827.501 1.845.05 2.685l-.05.09-5.354 9.148c-.477.815-1.338 1.327-2.278 1.36l-.097.002H6.523c-.945 0-1.821-.485-2.324-1.278l-.05-.084-5.355-9.148c-.485-.828-.501-1.845-.05-2.686l.05-.089 5.354-9.149c.477-.815 1.338-1.326 2.277-1.36h10.868zm0 1.03H6.523c-.584 0-1.127.297-1.443.784l-.041.067-5.355 9.15c-.3.51-.313 1.138-.04 1.66l.04.073L5.04 23.5c.295.503.824.821 1.404.848l.08.002h10.77c.584 0 1.126-.296 1.442-.783l.042-.068 5.355-9.149c.299-.51.312-1.138.04-1.66l-.04-.074-5.355-9.149c-.295-.503-.825-.822-1.405-.848l-.08-.002z" transform="translate(81.968 40.079) translate(0 68.72) translate(24.15) translate(2.614 1.024) rotate(-90 11.908 13.483)"/>
                            </g>
                            <g>
                                <path fill="#80BDBB" d="M11.292.936H4.927c-.963 0-1.854.512-2.34 1.344L-.566 7.676c-.494.846-.494 1.893 0 2.74l3.153 5.395c.486.833 1.377 1.344 2.34 1.344h6.365c.963 0 1.854-.511 2.34-1.344l3.152-5.396c.495-.846.495-1.893 0-2.739L13.632 2.28c-.486-.832-1.377-1.344-2.34-1.344z" transform="translate(81.968 40.079) translate(0 68.72) translate(24.15) translate(6.413 5.462) rotate(-90 8.11 9.046)"/>
                                <path fill="#6FA3A2" d="M11.276.944c.943 0 1.818.483 2.32 1.275l.05.083 3.137 5.36c.483.825.5 1.84.05 2.68l-.05.088-3.137 5.36c-.476.813-1.335 1.323-2.272 1.356l-.098.002H4.942c-.943 0-1.817-.483-2.319-1.276l-.05-.083-3.137-5.359c-.483-.825-.5-1.84-.05-2.68l.05-.089 3.136-5.359C3.048 1.49 3.907.98 4.845.945l.097-.001h6.334zm0 1.028H4.942c-.583 0-1.124.296-1.44.782l-.04.067-3.137 5.36C.026 8.69.012 9.316.284 9.836l.04.074 3.137 5.36c.295.502.823.82 1.402.846l.08.002h6.333c.583 0 1.125-.295 1.44-.781l.041-.068 3.137-5.359c.299-.51.312-1.136.04-1.657l-.04-.074-3.137-5.359c-.294-.503-.823-.82-1.402-.847l-.079-.002z" transform="translate(81.968 40.079) translate(0 68.72) translate(24.15) translate(6.413 5.462) rotate(-90 8.11 9.046)"/>
                            </g>
                        </g>
                    </g>
                    <g>
                        <g transform="translate(81.968 40.079) translate(37.295) translate(104.547 1.527)">
                            <ellipse cx="12.992" cy="12.98" fill="#B8CC7A" rx="12.075" ry="12.064"/>
                            <path fill="#9FB06A" d="M12.992.916c6.669 0 12.075 5.402 12.075 12.064 0 6.663-5.406 12.064-12.075 12.064S.917 19.644.917 12.98C.917 6.318 6.323.916 12.992.916zm0 .917c-6.162 0-11.158 4.99-11.158 11.147S6.83 24.128 12.992 24.128c6.162 0 11.158-4.991 11.158-11.148 0-6.156-4.996-11.147-11.158-11.147z"/>
                            <g transform="translate(4.562 4.558)">
                                <ellipse cx="8.43" cy="8.422" fill="#F48D25" rx="8.43" ry="8.422"/>
                                <path fill="#D27A22" d="M8.43 0c4.655 0 8.43 3.77 8.43 8.422 0 4.651-3.775 8.422-8.43 8.422-4.656 0-8.43-3.77-8.43-8.422C0 3.771 3.774 0 8.43 0zm0 .922C4.283.922.922 4.28.922 8.422c0 4.142 3.361 7.5 7.508 7.5 4.146 0 7.507-3.358 7.507-7.5 0-4.142-3.361-7.5-7.507-7.5z"/>
                            </g>
                        </g>
                        <g>
                            <g>
                                <g transform="translate(81.968 40.079) translate(37.295) translate(78.563 1.527) translate(.917 .916)">
                                    <ellipse cx="12.075" cy="12.064" fill="#F48D25" rx="12.075" ry="12.064"/>
                                    <path fill="#D27A22" d="M12.075 0C18.744 0 24.15 5.401 24.15 12.064s-5.406 12.064-12.075 12.064S0 18.727 0 12.064 5.406 0 12.075 0zm0 .916C5.913.916.917 5.907.917 12.064s4.996 11.148 11.158 11.148c6.162 0 11.158-4.991 11.158-11.148S18.237.916 12.075.916z"/>
                                </g>
                                <g>
                                    <path fill="#B8CC7A" d="M11.33.964H4.76c-.876 0-1.687.466-2.13 1.223L-.626 7.764c-.45.77-.45 1.722 0 2.492l3.258 5.577c.442.757 1.253 1.222 2.129 1.222h6.57c.877 0 1.687-.465 2.13-1.222l3.258-5.577c.45-.77.45-1.722 0-2.492L13.46 2.187C13.017 1.43 12.207.964 11.33.964z" transform="translate(81.968 40.079) translate(37.295) translate(78.563 1.527) translate(.917 .916) translate(4.029 3.054) rotate(-90 8.045 9.01)"/>
                                    <path fill="#D27A22" d="M11.334.972c.848 0 1.634.434 2.085 1.146l.046.075 3.26 5.572c.435.742.45 1.655.046 2.41l-.045.08-3.261 5.572c-.428.73-1.2 1.19-2.044 1.22l-.087.001H4.757c-.848 0-1.634-.434-2.085-1.147l-.046-.074-3.261-5.572c-.435-.743-.45-1.656-.045-2.41l.045-.08 3.261-5.572c.428-.731 1.2-1.19 2.043-1.22l.088-.001h6.577zm0 .925H4.757c-.524 0-1.011.265-1.294.702l-.038.06L.164 8.233c-.268.459-.28 1.021-.037 1.49l.037.066 3.261 5.572c.265.452.74.738 1.26.762l.072.001h6.577c.524 0 1.01-.266 1.294-.703l.038-.06 3.26-5.572c.27-.459.281-1.022.037-1.49l-.036-.066-3.261-5.572c-.265-.452-.74-.738-1.261-.762l-.071-.001z" transform="translate(81.968 40.079) translate(37.295) translate(78.563 1.527) translate(.917 .916) translate(4.029 3.054) rotate(-90 8.045 9.01)"/>
                                </g>
                            </g>
                        </g>
                        <g>
                            <g>
                                <path fill="#B8CC7A" d="M17.307 1.576H6.51c-.965 0-1.858.512-2.345 1.346l-5.369 9.19c-.495.847-.495 1.897 0 2.744l5.369 9.19c.487.834 1.38 1.346 2.345 1.346h10.797c.965 0 1.858-.512 2.345-1.346l5.369-9.19c.495-.847.495-1.897 0-2.745l-5.369-9.189c-.487-.834-1.38-1.346-2.345-1.346z" transform="translate(81.968 40.079) translate(37.295) translate(51.356) translate(2.614 1.024) rotate(-90 11.908 13.484)"/>
                                <path fill="#9FB06A" d="M17.294 1.586c.945 0 1.82.484 2.324 1.278l.05.083 5.355 9.15c.485.827.501 1.844.05 2.685l-.05.09-5.355 9.149c-.476.815-1.337 1.326-2.277 1.359l-.097.002H6.524c-.946 0-1.822-.484-2.325-1.278l-.05-.083-5.355-9.15c-.485-.827-.501-1.844-.05-2.685l.05-.09 5.354-9.149c.477-.815 1.338-1.326 2.278-1.36H17.293zm0 1.03H6.524c-.585 0-1.127.297-1.443.784l-.042.068-5.355 9.149c-.3.511-.313 1.138-.04 1.66l.04.074 5.355 9.15c.295.503.825.822 1.405.848l.08.002h10.77c.584 0 1.126-.296 1.442-.783l.042-.068 5.355-9.149c.299-.511.313-1.138.04-1.66l-.04-.074-5.355-9.15c-.295-.503-.825-.822-1.405-.848l-.08-.002z" transform="translate(81.968 40.079) translate(37.295) translate(51.356) translate(2.614 1.024) rotate(-90 11.908 13.484)"/>
                            </g>
                            <g transform="translate(81.968 40.079) translate(37.295) translate(51.356) translate(6.15 6.144)">
                                <ellipse cx="8.371" cy="8.363" fill="#D6455D" rx="8.371" ry="8.363"/>
                                <path fill="#B93D52" d="M8.37 0c4.624 0 8.371 3.744 8.371 8.363s-3.747 8.363-8.37 8.363C3.748 16.726 0 12.982 0 8.363S3.748 0 8.37 0zm0 1C4.287 1 .984 4.3.984 8.363c0 4.063 3.303 7.363 7.388 7.363 4.084 0 7.388-3.3 7.388-7.363C15.759 4.301 12.455 1 8.37 1z"/>
                            </g>
                        </g>
                        <g opacity=".849" transform="translate(81.968 40.079) translate(37.295) translate(27.207 1.527)">
                            <ellipse cx="12.992" cy="12.98" fill="#B8CC7A" rx="12.075" ry="12.064"/>
                            <path fill="#9FB06A" d="M12.992.916c6.669 0 12.075 5.402 12.075 12.064 0 6.663-5.406 12.064-12.075 12.064S.917 19.644.917 12.98C.917 6.318 6.323.916 12.992.916zm0 .917c-6.162 0-11.158 4.99-11.158 11.147S6.83 24.128 12.992 24.128c6.162 0 11.158-4.991 11.158-11.148 0-6.156-4.996-11.147-11.158-11.147z"/>
                            <g transform="translate(4.562 4.558)">
                                <ellipse cx="8.43" cy="8.422" fill="#80BDBB" rx="8.43" ry="8.422"/>
                                <path fill="#6FA3A2" d="M8.43 0c4.655 0 8.43 3.77 8.43 8.422 0 4.651-3.775 8.422-8.43 8.422-4.656 0-8.43-3.77-8.43-8.422C0 3.771 3.774 0 8.43 0zm0 .922C4.283.922.922 4.28.922 8.422c0 4.142 3.361 7.5 7.508 7.5 4.146 0 7.507-3.358 7.507-7.5 0-4.142-3.361-7.5-7.507-7.5z"/>
                            </g>
                        </g>
                        <g opacity=".2">
                            <g>
                                <path fill="#80BDBB" d="M17.307 1.576H6.51c-.965 0-1.858.512-2.345 1.346l-5.369 9.19c-.495.847-.495 1.897 0 2.744l5.369 9.19c.487.834 1.38 1.346 2.345 1.346h10.797c.965 0 1.858-.512 2.345-1.346l5.369-9.19c.495-.847.495-1.897 0-2.745l-5.369-9.189c-.487-.834-1.38-1.346-2.345-1.346z" transform="translate(81.968 40.079) translate(37.295) translate(2.614 1.024) rotate(-90 11.908 13.484)"/>
                                <path fill="#6FA3A2" d="M17.294 1.586c.945 0 1.82.484 2.324 1.278l.05.083 5.355 9.15c.485.827.501 1.844.05 2.685l-.05.09-5.355 9.149c-.476.815-1.337 1.326-2.277 1.359l-.097.002H6.524c-.946 0-1.822-.484-2.325-1.278l-.05-.083-5.355-9.15c-.485-.827-.501-1.844-.05-2.685l.05-.09 5.354-9.149c.477-.815 1.338-1.326 2.278-1.36H17.293zm0 1.03H6.524c-.585 0-1.127.297-1.443.784l-.042.068-5.355 9.149c-.3.511-.313 1.138-.04 1.66l.04.074 5.355 9.15c.295.503.825.822 1.405.848l.08.002h10.77c.584 0 1.126-.296 1.442-.783l.042-.068 5.355-9.149c.299-.511.313-1.138.04-1.66l-.04-.074-5.355-9.15c-.295-.503-.825-.822-1.405-.848l-.08-.002z" transform="translate(81.968 40.079) translate(37.295) translate(2.614 1.024) rotate(-90 11.908 13.484)"/>
                            </g>
                            <g transform="translate(81.968 40.079) translate(37.295) translate(6.15 6.144)">
                                <ellipse cx="8.371" cy="8.363" fill="#B8CC7A" rx="8.371" ry="8.363"/>
                                <path fill="#6FA3A2" d="M8.37 0c4.624 0 8.371 3.744 8.371 8.363s-3.747 8.363-8.37 8.363C3.748 16.726 0 12.982 0 8.363S3.748 0 8.37 0zm0 1C4.287 1 .984 4.3.984 8.363c0 4.063 3.303 7.363 7.388 7.363 4.084 0 7.388-3.3 7.388-7.363C15.759 4.301 12.455 1 8.37 1z"/>
                            </g>
                        </g>
                    </g>
                    <g>
                        <g transform="translate(81.968 40.079) translate(37.295 45.813) translate(104.547 1.527)">
                            <ellipse cx="12.992" cy="12.98" fill="#80BDBB" rx="12.075" ry="12.064"/>
                            <path fill="#6FA3A2" d="M12.992.916c6.669 0 12.075 5.402 12.075 12.064 0 6.663-5.406 12.064-12.075 12.064S.917 19.644.917 12.98C.917 6.318 6.323.916 12.992.916zm0 .917c-6.162 0-11.158 4.99-11.158 11.147S6.83 24.128 12.992 24.128c6.162 0 11.158-4.991 11.158-11.148 0-6.156-4.996-11.147-11.158-11.147z"/>
                            <g transform="translate(4.562 4.558)">
                                <ellipse cx="8.43" cy="8.422" fill="#D6455D" rx="8.43" ry="8.422"/>
                                <path fill="#B93D52" d="M8.43 0c4.655 0 8.43 3.77 8.43 8.422 0 4.651-3.775 8.422-8.43 8.422-4.656 0-8.43-3.77-8.43-8.422C0 3.771 3.774 0 8.43 0zm0 .922C4.283.922.922 4.28.922 8.422c0 4.142 3.361 7.5 7.508 7.5 4.146 0 7.507-3.358 7.507-7.5 0-4.142-3.361-7.5-7.507-7.5z"/>
                            </g>
                        </g>
                        <g>
                            <g transform="translate(81.968 40.079) translate(37.295 45.813) translate(78.563 1.527) translate(.917 .916)">
                                <ellipse cx="12.075" cy="12.064" fill="#F48D25" rx="12.075" ry="12.064"/>
                                <path fill="#D27A22" d="M12.075 0C18.744 0 24.15 5.401 24.15 12.064s-5.406 12.064-12.075 12.064S0 18.727 0 12.064 5.406 0 12.075 0zm0 .916C5.913.916.917 5.907.917 12.064s4.996 11.148 11.158 11.148c6.162 0 11.158-4.991 11.158-11.148S18.237.916 12.075.916z"/>
                            </g>
                            <g>
                                <path fill="#D27A22" d="M11.33.964H4.76c-.876 0-1.687.466-2.13 1.223L-.626 7.764c-.45.77-.45 1.722 0 2.492l3.258 5.577c.442.757 1.253 1.222 2.129 1.222h6.57c.877 0 1.687-.465 2.13-1.222l3.258-5.577c.45-.77.45-1.722 0-2.492L13.46 2.187C13.017 1.43 12.207.964 11.33.964z" transform="translate(81.968 40.079) translate(37.295 45.813) translate(78.563 1.527) translate(4.946 3.97) rotate(-90 8.045 9.01)"/>
                                <path fill="#B56A1F" d="M11.334.972c.848 0 1.634.434 2.085 1.146l.046.075 3.26 5.572c.435.742.45 1.655.046 2.41l-.045.08-3.261 5.572c-.428.73-1.2 1.19-2.044 1.22l-.087.001H4.757c-.848 0-1.634-.434-2.085-1.147l-.046-.074-3.261-5.572c-.435-.743-.45-1.656-.045-2.41l.045-.08 3.261-5.572c.428-.731 1.2-1.19 2.043-1.22l.088-.001h6.577zm0 .925H4.757c-.524 0-1.011.265-1.294.702l-.038.06L.164 8.233c-.268.459-.28 1.021-.037 1.49l.037.066 3.261 5.572c.265.452.74.738 1.26.762l.072.001h6.577c.524 0 1.01-.266 1.294-.703l.038-.06 3.26-5.572c.27-.459.281-1.022.037-1.49l-.036-.066-3.261-5.572c-.265-.452-.74-.738-1.261-.762l-.071-.001z" transform="translate(81.968 40.079) translate(37.295 45.813) translate(78.563 1.527) translate(4.946 3.97) rotate(-90 8.045 9.01)"/>
                            </g>
                        </g>
                        <g>
                            <g>
                                <path fill="#D6455D" d="M17.307 1.576H6.51c-.965 0-1.858.512-2.345 1.346l-5.369 9.19c-.495.847-.495 1.897 0 2.744l5.369 9.19c.487.834 1.38 1.346 2.345 1.346h10.797c.965 0 1.858-.512 2.345-1.346l5.369-9.19c.495-.847.495-1.897 0-2.745l-5.369-9.189c-.487-.834-1.38-1.346-2.345-1.346z" transform="translate(81.968 40.079) translate(37.295 45.813) translate(51.356) translate(2.614 1.024) rotate(-90 11.908 13.484)"/>
                                <path fill="#B93D52" d="M17.294 1.586c.945 0 1.82.484 2.324 1.278l.05.083 5.355 9.15c.485.827.501 1.844.05 2.685l-.05.09-5.355 9.149c-.476.815-1.337 1.326-2.277 1.359l-.097.002H6.524c-.946 0-1.822-.484-2.325-1.278l-.05-.083-5.355-9.15c-.485-.827-.501-1.844-.05-2.685l.05-.09 5.354-9.149c.477-.815 1.338-1.326 2.278-1.36H17.293zm0 1.03H6.524c-.585 0-1.127.297-1.443.784l-.042.068-5.355 9.149c-.3.511-.313 1.138-.04 1.66l.04.074 5.355 9.15c.295.503.825.822 1.405.848l.08.002h10.77c.584 0 1.126-.296 1.442-.783l.042-.068 5.355-9.149c.299-.511.313-1.138.04-1.66l-.04-.074-5.355-9.15c-.295-.503-.825-.822-1.405-.848l-.08-.002z" transform="translate(81.968 40.079) translate(37.295 45.813) translate(51.356) translate(2.614 1.024) rotate(-90 11.908 13.484)"/>
                            </g>
                            <g transform="translate(81.968 40.079) translate(37.295 45.813) translate(51.356) translate(6.15 6.144)">
                                <ellipse cx="8.371" cy="8.363" fill="#F48D25" rx="8.371" ry="8.363"/>
                                <path fill="#B93D52" d="M8.37 0c4.624 0 8.371 3.744 8.371 8.363s-3.747 8.363-8.37 8.363C3.748 16.726 0 12.982 0 8.363S3.748 0 8.37 0zm0 1C4.287 1 .984 4.3.984 8.363c0 4.063 3.303 7.363 7.388 7.363 4.084 0 7.388-3.3 7.388-7.363C15.759 4.301 12.455 1 8.37 1z"/>
                            </g>
                        </g>
                        <g>
                            <g transform="translate(81.968 40.079) translate(37.295 45.813) translate(27.207 1.527) translate(.917 .916)">
                                <ellipse cx="12.075" cy="12.064" fill="#D6455D" rx="12.075" ry="12.064"/>
                                <path fill="#B93D52" d="M12.075 0C18.744 0 24.15 5.401 24.15 12.064s-5.406 12.064-12.075 12.064S0 18.727 0 12.064 5.406 0 12.075 0zm0 .916C5.913.916.917 5.907.917 12.064s4.996 11.148 11.158 11.148c6.162 0 11.158-4.991 11.158-11.148S18.237.916 12.075.916z"/>
                                <g transform="translate(3.645 3.642)">
                                    <ellipse cx="8.43" cy="8.422" fill="#80BDBB" rx="8.43" ry="8.422"/>
                                    <path fill="#B93D52" d="M8.43 0c4.655 0 8.43 3.77 8.43 8.422 0 4.651-3.775 8.422-8.43 8.422-4.656 0-8.43-3.77-8.43-8.422C0 3.771 3.774 0 8.43 0zm0 .922C4.283.922.922 4.28.922 8.422c0 4.142 3.361 7.5 7.508 7.5 4.146 0 7.507-3.358 7.507-7.5 0-4.142-3.361-7.5-7.507-7.5z"/>
                                </g>
                            </g>
                        </g>
                        <g opacity=".441">
                            <g>
                                <path fill="#F48D25" d="M17.306 1.575H6.51c-.965 0-1.857.513-2.345 1.347l-5.368 9.189c-.495.848-.495 1.897 0 2.745l5.368 9.189c.488.834 1.38 1.346 2.345 1.346h10.797c.965 0 1.858-.512 2.345-1.346l5.369-9.19c.495-.847.495-1.896 0-2.744L19.65 2.92c-.487-.833-1.38-1.346-2.345-1.346z" transform="translate(81.968 40.079) translate(37.295 45.813) translate(2.614 1.024) rotate(-90 11.908 13.483)"/>
                                <path fill="#D27A22" d="M17.293 1.586c.945 0 1.82.484 2.324 1.278l.05.083 5.355 9.149c.484.827.501 1.845.05 2.685l-.05.09-5.354 9.148c-.477.815-1.338 1.327-2.278 1.36l-.097.002H6.523c-.945 0-1.821-.485-2.324-1.278l-.05-.084-5.355-9.148c-.485-.828-.501-1.845-.05-2.686l.05-.089 5.354-9.149c.477-.815 1.338-1.326 2.277-1.36h10.868zm0 1.03H6.523c-.584 0-1.127.297-1.443.784l-.041.067-5.355 9.15c-.3.51-.313 1.138-.04 1.66l.04.073L5.04 23.5c.295.503.824.821 1.404.848l.08.002h10.77c.584 0 1.126-.296 1.442-.783l.042-.068 5.355-9.149c.299-.51.312-1.138.04-1.66l-.04-.074-5.355-9.149c-.295-.503-.825-.822-1.405-.848l-.08-.002z" transform="translate(81.968 40.079) translate(37.295 45.813) translate(2.614 1.024) rotate(-90 11.908 13.483)"/>
                            </g>
                            <g>
                                <path fill="#D6455D" d="M11.292.936H4.927c-.963 0-1.854.512-2.34 1.344L-.566 7.676c-.494.846-.494 1.893 0 2.74l3.153 5.395c.486.833 1.377 1.344 2.34 1.344h6.365c.963 0 1.854-.511 2.34-1.344l3.152-5.396c.495-.846.495-1.893 0-2.739L13.632 2.28c-.486-.832-1.377-1.344-2.34-1.344z" transform="translate(81.968 40.079) translate(37.295 45.813) translate(6.413 5.462) rotate(-90 8.11 9.046)"/>
                                <path fill="#B93D52" d="M11.276.944c.943 0 1.818.483 2.32 1.275l.05.083 3.137 5.36c.483.825.5 1.84.05 2.68l-.05.088-3.137 5.36c-.476.813-1.335 1.323-2.272 1.356l-.098.002H4.942c-.943 0-1.817-.483-2.319-1.276l-.05-.083-3.137-5.359c-.483-.825-.5-1.84-.05-2.68l.05-.089 3.136-5.359C3.048 1.49 3.907.98 4.845.945l.097-.001h6.334zm0 1.028H4.942c-.583 0-1.124.296-1.44.782l-.04.067-3.137 5.36C.026 8.69.012 9.316.284 9.836l.04.074 3.137 5.36c.295.502.823.82 1.402.846l.08.002h6.333c.583 0 1.125-.295 1.44-.781l.041-.068 3.137-5.359c.299-.51.312-1.136.04-1.657l-.04-.074-3.137-5.359c-.294-.503-.823-.82-1.402-.847l-.079-.002z" transform="translate(81.968 40.079) translate(37.295 45.813) translate(6.413 5.462) rotate(-90 8.11 9.046)"/>
                            </g>
                        </g>
                    </g>
                </g>
            </g>
        </g>
    </g>
</svg>
